<svg width="28" height="36" viewBox="0 0 28 36" fill="none" xmlns="http://www.w3.org/2000/svg">
<g id="Group 160">
<g id="Group">
<path id="Vector" d="M18.8938 5.34815C20.218 3.93061 21.1136 1.96253 20.8684 0C18.9608 0.0680771 16.6489 1.11977 15.2796 2.5372C14.0522 3.79204 12.9775 5.79754 13.2643 7.72156C15.3929 7.86556 17.5676 6.76341 18.8938 5.34815ZM22.9564 18.9014C22.9157 14.5016 26.4398 12.3885 26.5959 12.2863C24.6146 9.29856 21.5291 8.88973 20.4302 8.84362C17.8028 8.56781 15.3073 10.4347 13.9733 10.4347C12.6449 10.4347 10.59 8.87983 8.41094 8.9216C5.54628 8.96879 2.90672 10.6369 1.43546 13.2807C-1.54038 18.5993 0.672729 26.478 3.57252 30.7921C4.99007 32.904 6.67788 35.2732 8.89424 35.1875C11.0337 35.1018 11.8403 33.7645 14.4215 33.7645C17.0039 33.7645 17.7269 35.1875 19.9861 35.1447C22.2849 35.1018 23.7398 32.992 25.1452 30.8734C26.7715 28.4241 27.4419 26.0528 27.4803 25.933C27.4309 25.9044 23.0036 24.1628 22.9564 18.9014Z" fill="white"/>
</g>
</g>
</svg>
