<svg width="15" height="28" viewBox="0 0 15 28" fill="none" xmlns="http://www.w3.org/2000/svg">
<path d="M1.06638 27.8381C0.855232 27.8372 0.649063 27.774 0.473785 27.6562C0.298507 27.5385 0.161944 27.3716 0.0812627 27.1765C0.000581553 26.9813 -0.0206169 26.7667 0.0203327 26.5596C0.0612823 26.3525 0.162552 26.162 0.311411 26.0123L12.4015 13.9168L0.311411 1.82133C0.111961 1.62069 9.60614e-06 1.34927 9.60614e-06 1.06637C9.60614e-06 0.783457 0.111961 0.512042 0.311411 0.311401C0.512052 0.111951 0.783466 0 1.06638 0C1.34928 0 1.6207 0.111951 1.82134 0.311401L14.6718 13.1618C14.8712 13.3625 14.9832 13.6339 14.9832 13.9168C14.9832 14.1997 14.8712 14.4711 14.6718 14.6718L1.82134 27.5222C1.62143 27.7233 1.34993 27.8369 1.06638 27.8381Z" fill="black"/>
</svg>
