<svg width="11" height="19" viewBox="0 0 11 19" fill="none" xmlns="http://www.w3.org/2000/svg">
<path d="M0.727497 18.9916C0.583452 18.991 0.4428 18.9478 0.323223 18.8675C0.203646 18.7872 0.110481 18.6733 0.0554386 18.5402C0.000396744 18.4071 -0.0140651 18.2607 0.0138713 18.1193C0.0418077 17.978 0.110895 17.8481 0.212449 17.746L8.46051 9.49426L0.212449 1.24254C0.0763812 1.10566 6.55345e-06 0.920495 6.55345e-06 0.72749C6.55345e-06 0.534486 0.0763812 0.349323 0.212449 0.212443C0.34933 0.0763744 0.534492 0 0.727497 0C0.920501 0 1.10566 0.0763744 1.24254 0.212443L10.0093 8.97921C10.1454 9.11609 10.2218 9.30125 10.2218 9.49426C10.2218 9.68726 10.1454 9.87242 10.0093 10.0093L1.24254 18.7761C1.10617 18.9133 0.920942 18.9908 0.727497 18.9916Z" fill="#0F8EEF"/>
</svg>
