<svg width="108" height="34" viewBox="0 0 108 34" fill="none" xmlns="http://www.w3.org/2000/svg">
<rect x="0.5" y="0.5" width="107" height="33" fill="white" stroke="black"/>
<path d="M15.5114 21L16.9602 12.2727H20.0114C20.6193 12.2727 21.1037 12.3778 21.4645 12.5881C21.8253 12.7955 22.0724 13.0753 22.206 13.4276C22.3395 13.777 22.3693 14.1648 22.2955 14.5909C22.233 14.9659 22.1151 15.2756 21.9418 15.5199C21.7713 15.7642 21.5668 15.9574 21.3281 16.0994C21.0923 16.2415 20.8466 16.3466 20.5909 16.4148L20.5739 16.5C20.8352 16.517 21.0866 16.6108 21.3281 16.7812C21.5696 16.9517 21.7557 17.196 21.8864 17.5142C22.017 17.8324 22.0455 18.2216 21.9716 18.6818C21.8977 19.1193 21.7315 19.5128 21.473 19.8622C21.2145 20.2116 20.8537 20.4886 20.3906 20.6932C19.9276 20.8977 19.3523 21 18.6648 21H15.5114ZM16.7216 20.0625H18.8182C19.5085 20.0625 20.0213 19.929 20.3565 19.6619C20.6946 19.392 20.8977 19.0653 20.9659 18.6818C21.0114 18.3864 20.9787 18.1136 20.8679 17.8636C20.7599 17.6108 20.5795 17.4091 20.3267 17.2585C20.0767 17.1051 19.7614 17.0284 19.3807 17.0284H17.233L16.7216 20.0625ZM17.3864 16.108H19.3466C19.6648 16.108 19.9631 16.0455 20.2415 15.9205C20.5199 15.7955 20.7528 15.6193 20.9403 15.392C21.1278 15.1648 21.2443 14.8977 21.2898 14.5909C21.358 14.2074 21.2813 13.8821 21.0597 13.6151C20.8381 13.3452 20.4375 13.2102 19.858 13.2102H17.8636L17.3864 16.108ZM25.0888 21.1534C24.674 21.1534 24.3104 21.0753 23.9979 20.919C23.6854 20.7599 23.4538 20.5312 23.3033 20.233C23.1527 19.9318 23.1115 19.5682 23.1797 19.142C23.245 18.767 23.3714 18.4631 23.5589 18.2301C23.7464 17.9943 23.9737 17.8097 24.2408 17.6761C24.5107 17.5398 24.8004 17.4389 25.1101 17.3736C25.4226 17.3054 25.7337 17.2528 26.0433 17.2159C26.4467 17.1648 26.7749 17.125 27.0277 17.0966C27.2805 17.0682 27.4709 17.0213 27.5987 16.956C27.7266 16.8906 27.8047 16.7784 27.8331 16.6193V16.5852C27.9013 16.1676 27.8459 15.8423 27.6669 15.6094C27.4879 15.3736 27.1683 15.2557 26.7081 15.2557C26.2308 15.2557 25.8317 15.3608 25.5107 15.571C25.1896 15.7812 24.9524 16.0057 24.799 16.2443L23.9126 15.9034C24.1456 15.5057 24.424 15.196 24.7479 14.9744C25.0717 14.75 25.4112 14.5937 25.7663 14.5057C26.1214 14.4148 26.4638 14.3693 26.7933 14.3693C27.0036 14.3693 27.2408 14.3949 27.505 14.446C27.7692 14.4943 28.0163 14.5952 28.2464 14.7486C28.4794 14.902 28.6541 15.1335 28.7706 15.4432C28.8899 15.7528 28.907 16.1676 28.8217 16.6875L28.1058 21H27.1001L27.2536 20.1136H27.2024C27.1115 20.2557 26.9723 20.4077 26.7848 20.5696C26.6001 20.7315 26.3658 20.8693 26.0817 20.983C25.8004 21.0966 25.4695 21.1534 25.0888 21.1534ZM25.3786 20.25C25.7763 20.25 26.1243 20.1719 26.4226 20.0156C26.7237 19.8594 26.9652 19.6577 27.147 19.4105C27.3317 19.1634 27.4467 18.9034 27.4922 18.6307L27.6456 17.7102C27.5945 17.7614 27.4936 17.8082 27.343 17.8509C27.1925 17.8906 27.022 17.9261 26.8317 17.9574C26.6442 17.9858 26.4609 18.0114 26.282 18.0341C26.1058 18.054 25.9638 18.071 25.8558 18.0852C25.5888 18.1193 25.3345 18.1747 25.093 18.2514C24.8544 18.3253 24.6527 18.4375 24.4879 18.5881C24.326 18.7358 24.2251 18.9375 24.1854 19.1932C24.1257 19.5426 24.2095 19.8068 24.4368 19.9858C24.6641 20.1619 24.978 20.25 25.3786 20.25ZM31.5948 17.0625L30.9471 21H29.9414L31.0323 14.4545H32.0039L31.8335 15.4773H31.9187C32.1232 15.1449 32.4002 14.8778 32.7496 14.6761C33.0991 14.4716 33.521 14.3693 34.0153 14.3693C34.4528 14.3693 34.8221 14.4602 35.1232 14.642C35.4272 14.821 35.6417 15.0938 35.7667 15.4602C35.8945 15.8239 35.913 16.2841 35.8221 16.8409L35.1232 21H34.1175L34.7994 16.9091C34.8846 16.3977 34.8178 15.9972 34.5991 15.7074C34.3832 15.4176 34.0408 15.2727 33.5721 15.2727C33.2482 15.2727 32.9485 15.3423 32.6729 15.4815C32.4002 15.6207 32.1687 15.8239 31.9783 16.0909C31.7908 16.358 31.663 16.6818 31.5948 17.0625ZM38.2905 18.6136L38.478 17.3693H38.6825L42.0405 14.4545H43.2848L39.7223 17.5398H39.6371L38.2905 18.6136ZM36.9609 21L38.4098 12.2727H39.4155L37.9666 21H36.9609ZM41.12 21L39.1087 17.7614L39.9268 17.0625L42.3984 21H41.12ZM47.8178 13.2102L47.9712 12.2727H54.5167L54.3633 13.2102H51.619L50.3235 21H49.2667L50.5621 13.2102H47.8178ZM53.8828 21L54.9737 14.4545H55.9453L55.7749 15.4432H55.843C56.0135 15.1193 56.2734 14.8565 56.6229 14.6548C56.9723 14.4531 57.343 14.3523 57.7351 14.3523C57.8118 14.3523 57.9041 14.3537 58.0121 14.3565C58.12 14.3565 58.2038 14.3608 58.2635 14.3693L58.093 15.392C58.0589 15.3835 57.9822 15.3707 57.8629 15.3537C57.7436 15.3338 57.6158 15.3239 57.4794 15.3239C57.1612 15.3239 56.8672 15.3906 56.5973 15.5241C56.3274 15.6548 56.1016 15.8366 55.9197 16.0696C55.7379 16.2997 55.6214 16.5625 55.5703 16.858L54.8885 21H53.8828ZM60.2802 21.1534C59.8654 21.1534 59.5018 21.0753 59.1893 20.919C58.8768 20.7599 58.6452 20.5312 58.4947 20.233C58.3441 19.9318 58.3029 19.5682 58.3711 19.142C58.4364 18.767 58.5629 18.4631 58.7504 18.2301C58.9379 17.9943 59.1651 17.8097 59.4322 17.6761C59.7021 17.5398 59.9918 17.4389 60.3015 17.3736C60.614 17.3054 60.9251 17.2528 61.2347 17.2159C61.6381 17.1648 61.9663 17.125 62.2191 17.0966C62.4719 17.0682 62.6623 17.0213 62.7901 16.956C62.918 16.8906 62.9961 16.7784 63.0245 16.6193V16.5852C63.0927 16.1676 63.0373 15.8423 62.8583 15.6094C62.6793 15.3736 62.3597 15.2557 61.8995 15.2557C61.4222 15.2557 61.0231 15.3608 60.7021 15.571C60.381 15.7812 60.1438 16.0057 59.9904 16.2443L59.104 15.9034C59.337 15.5057 59.6154 15.196 59.9393 14.9744C60.2631 14.75 60.6026 14.5937 60.9577 14.5057C61.3129 14.4148 61.6552 14.3693 61.9847 14.3693C62.195 14.3693 62.4322 14.3949 62.6964 14.446C62.9606 14.4943 63.2077 14.5952 63.4379 14.7486C63.6708 14.902 63.8455 15.1335 63.962 15.4432C64.0813 15.7528 64.0984 16.1676 64.0131 16.6875L63.2972 21H62.2915L62.445 20.1136H62.3938C62.3029 20.2557 62.1637 20.4077 61.9762 20.5696C61.7915 20.7315 61.5572 20.8693 61.2731 20.983C60.9918 21.0966 60.6609 21.1534 60.2802 21.1534ZM60.57 20.25C60.9677 20.25 61.3157 20.1719 61.614 20.0156C61.9151 19.8594 62.1566 19.6577 62.3384 19.4105C62.5231 19.1634 62.6381 18.9034 62.6836 18.6307L62.837 17.7102C62.7859 17.7614 62.685 17.8082 62.5344 17.8509C62.3839 17.8906 62.2134 17.9261 62.0231 17.9574C61.8356 17.9858 61.6523 18.0114 61.4734 18.0341C61.2972 18.054 61.1552 18.071 61.0472 18.0852C60.7802 18.1193 60.5259 18.1747 60.2844 18.2514C60.0458 18.3253 59.8441 18.4375 59.6793 18.5881C59.5174 18.7358 59.4165 18.9375 59.3768 19.1932C59.3171 19.5426 59.4009 19.8068 59.6282 19.9858C59.8555 20.1619 60.1694 20.25 60.57 20.25ZM66.7862 17.0625L66.1385 21H65.1328L66.2237 14.4545H67.1953L67.0249 15.4773H67.1101C67.3146 15.1449 67.5916 14.8778 67.9411 14.6761C68.2905 14.4716 68.7124 14.3693 69.2067 14.3693C69.6442 14.3693 70.0135 14.4602 70.3146 14.642C70.6186 14.821 70.8331 15.0938 70.9581 15.4602C71.0859 15.8239 71.1044 16.2841 71.0135 16.8409L70.3146 21H69.3089L69.9908 16.9091C70.076 16.3977 70.0092 15.9972 69.7905 15.7074C69.5746 15.4176 69.2322 15.2727 68.7635 15.2727C68.4396 15.2727 68.1399 15.3423 67.8643 15.4815C67.5916 15.6207 67.3601 15.8239 67.1697 16.0909C66.9822 16.358 66.8544 16.6818 66.7862 17.0625ZM77.641 15.9205L76.6864 16.1761C76.6523 16.0227 76.5927 15.875 76.5075 15.733C76.4251 15.5881 76.2972 15.4702 76.1239 15.3793C75.9535 15.2855 75.7205 15.2386 75.4251 15.2386C75.0245 15.2386 74.6765 15.331 74.381 15.5156C74.0856 15.6974 73.9165 15.929 73.8739 16.2102C73.8313 16.4574 73.8881 16.6548 74.0444 16.8026C74.2006 16.9503 74.462 17.071 74.8285 17.1648L75.766 17.4034C76.3285 17.5483 76.729 17.7656 76.9677 18.0554C77.2092 18.3423 77.2915 18.7159 77.2148 19.1761C77.1523 19.5511 76.989 19.8864 76.7248 20.1818C76.4606 20.4773 76.1225 20.7102 75.7106 20.8807C75.2987 21.0511 74.8398 21.1364 74.3342 21.1364C73.6609 21.1364 73.1296 20.9915 72.7404 20.7017C72.3512 20.4091 72.1438 19.9858 72.1183 19.4318L73.1239 19.1932C73.1495 19.5426 73.2745 19.8068 73.4989 19.9858C73.7262 20.1619 74.0444 20.25 74.4535 20.25C74.9222 20.25 75.3129 20.1506 75.6254 19.9517C75.9379 19.75 76.1154 19.5085 76.158 19.2273C76.2006 18.9972 76.1552 18.8054 76.0217 18.652C75.891 18.4986 75.6637 18.3835 75.3398 18.3068L74.3001 18.0511C73.7205 17.9062 73.3143 17.6847 73.0813 17.3864C72.8512 17.0881 72.7745 16.7131 72.8512 16.2614C72.9137 15.892 73.0728 15.5653 73.3285 15.2812C73.587 14.9972 73.9109 14.7741 74.3001 14.6122C74.6921 14.4503 75.1183 14.3693 75.5785 14.3693C76.2262 14.3693 76.7106 14.5114 77.0316 14.7955C77.3526 15.0767 77.5558 15.4517 77.641 15.9205ZM82.4276 14.4545L82.2912 15.3068H78.7628L78.8991 14.4545H82.4276ZM78.8651 21L80.1094 13.5511C80.1662 13.1761 80.3026 12.8636 80.5185 12.6136C80.7372 12.3636 80.9972 12.1761 81.2983 12.0511C81.6023 11.9261 81.9105 11.8636 82.223 11.8636C82.4702 11.8636 82.6676 11.8835 82.8153 11.9233C82.9659 11.9631 83.0753 12 83.1435 12.0341L82.7173 12.9034C82.6662 12.8864 82.598 12.8651 82.5128 12.8395C82.4304 12.8139 82.3168 12.8011 82.1719 12.8011C81.8395 12.8011 81.5866 12.8849 81.4134 13.0526C81.2401 13.2202 81.1236 13.4659 81.0639 13.7898L79.8707 21H78.8651ZM85.2038 21.1364C84.576 21.1364 84.0575 20.9972 83.6484 20.7188C83.2393 20.4375 82.9538 20.0455 82.7919 19.5426C82.63 19.0369 82.6044 18.4489 82.7152 17.7784C82.826 17.108 83.0462 16.517 83.3757 16.0057C83.7053 15.4915 84.1158 15.0909 84.6072 14.804C85.0987 14.5142 85.6385 14.3693 86.2266 14.3693C86.5675 14.3693 86.8956 14.4261 87.2109 14.5398C87.5263 14.6534 87.799 14.8381 88.0291 15.0938C88.2592 15.3466 88.4197 15.6818 88.5107 16.0994C88.6016 16.517 88.5959 17.0312 88.4936 17.642L88.4254 18.0682H83.38L83.5163 17.1989H87.5391C87.6044 16.8295 87.5874 16.5 87.4879 16.2102C87.3913 15.9205 87.2223 15.6918 86.9808 15.5241C86.7422 15.3565 86.4396 15.2727 86.0732 15.2727C85.6953 15.2727 85.343 15.375 85.0163 15.5795C84.6896 15.7812 84.4169 16.0369 84.1982 16.3466C83.9794 16.6534 83.843 16.9659 83.7891 17.2841L83.6697 18.0341C83.5845 18.5767 83.5973 19.0085 83.7081 19.3295C83.8217 19.6506 84.0192 19.8821 84.3004 20.0241C84.5817 20.1634 84.9339 20.233 85.3572 20.233C85.6271 20.233 85.8757 20.196 86.103 20.1222C86.3303 20.0455 86.5334 19.9318 86.7124 19.7812C86.8913 19.6278 87.0419 19.4375 87.1641 19.2102L88.0845 19.483C87.9283 19.8125 87.7081 20.1023 87.424 20.3523C87.1428 20.5994 86.8132 20.7926 86.4354 20.9318C86.0604 21.0682 85.6499 21.1364 85.2038 21.1364ZM89.4844 21L90.5753 14.4545H91.5469L91.3764 15.4432H91.4446C91.6151 15.1193 91.875 14.8565 92.2244 14.6548C92.5739 14.4531 92.9446 14.3523 93.3366 14.3523C93.4134 14.3523 93.5057 14.3537 93.6136 14.3565C93.7216 14.3565 93.8054 14.3608 93.8651 14.3693L93.6946 15.392C93.6605 15.3835 93.5838 15.3707 93.4645 15.3537C93.3452 15.3338 93.2173 15.3239 93.081 15.3239C92.7628 15.3239 92.4688 15.3906 92.1989 15.5241C91.929 15.6548 91.7031 15.8366 91.5213 16.0696C91.3395 16.2997 91.223 16.5625 91.1719 16.858L90.4901 21H89.4844Z" fill="black"/>
</svg>
