<svg width="53" height="58" viewBox="0 0 53 58" fill="none" xmlns="http://www.w3.org/2000/svg">
<path d="M28.0333 0C29.489 0 30.8419 0.750544 31.6125 1.98564L34.4645 6.55679H38.9062C42.2717 6.55679 45 9.28505 45 12.6505V36.088C45 39.4535 42.2717 42.1818 38.9062 42.1818H6.09375C2.72826 42.1818 0 39.4535 0 36.088V12.6505C0 9.28505 2.72826 6.55679 6.09375 6.55679H10.9097L13.502 2.09823C14.2573 0.799229 15.6465 0 17.1491 0H28.0333ZM22.5 13.1243C16.8046 13.1243 12.1875 17.7414 12.1875 23.4368C12.1875 29.1323 16.8046 33.7493 22.5 33.7493C28.1954 33.7493 32.8125 29.1323 32.8125 23.4368C32.8125 17.7414 28.1954 13.1243 22.5 13.1243ZM22.5 15.9368C26.6421 15.9368 30 19.2947 30 23.4368C30 27.579 26.6421 30.9368 22.5 30.9368C18.3579 30.9368 15 27.579 15 23.4368C15 19.2947 18.3579 15.9368 22.5 15.9368Z" fill="#047F73"/>
<circle cx="42.5" cy="37.5" r="10" fill="#047F73" stroke="white"/>
<path d="M41.89 43.1V38.36H37.69V36.68H41.89V32H43.54V36.68H47.77V38.36H43.54V43.1H41.89Z" fill="white"/>
<path d="M41.89 43.1H40.89V44.1H41.89V43.1ZM41.89 38.36H42.89V37.36H41.89V38.36ZM37.69 38.36H36.69V39.36H37.69V38.36ZM37.69 36.68V35.68H36.69V36.68H37.69ZM41.89 36.68V37.68H42.89V36.68H41.89ZM41.89 32V31H40.89V32H41.89ZM43.54 32H44.54V31H43.54V32ZM43.54 36.68H42.54V37.68H43.54V36.68ZM47.77 36.68H48.77V35.68H47.77V36.68ZM47.77 38.36V39.36H48.77V38.36H47.77ZM43.54 38.36V37.36H42.54V38.36H43.54ZM43.54 43.1V44.1H44.54V43.1H43.54ZM42.89 43.1V38.36H40.89V43.1H42.89ZM41.89 37.36H37.69V39.36H41.89V37.36ZM38.69 38.36V36.68H36.69V38.36H38.69ZM37.69 37.68H41.89V35.68H37.69V37.68ZM42.89 36.68V32H40.89V36.68H42.89ZM41.89 33H43.54V31H41.89V33ZM42.54 32V36.68H44.54V32H42.54ZM43.54 37.68H47.77V35.68H43.54V37.68ZM46.77 36.68V38.36H48.77V36.68H46.77ZM47.77 37.36H43.54V39.36H47.77V37.36ZM42.54 38.36V43.1H44.54V38.36H42.54ZM43.54 42.1H41.89V44.1H43.54V42.1Z" fill="white"/>
</svg>
