<svg width="41" height="41" viewBox="0 0 41 41" fill="none" xmlns="http://www.w3.org/2000/svg">
<circle cx="20.5" cy="20.5" r="20.5" fill="white"/>
<path d="M22.9511 9C23.7275 9 24.449 9.40029 24.86 10.059L26.3811 12.497H28.75C30.5449 12.497 32 13.952 32 15.747V28.247C32 30.0419 30.5449 31.497 28.75 31.497H11.25C9.45507 31.497 8 30.0419 8 28.247V15.747C8 13.952 9.45507 12.497 11.25 12.497H13.8185L15.2011 10.1191C15.6039 9.42626 16.3448 9 17.1462 9H22.9511ZM20 15.9996C16.9624 15.9996 14.5 18.4621 14.5 21.4996C14.5 24.5372 16.9624 26.9996 20 26.9996C23.0376 26.9996 25.5 24.5372 25.5 21.4996C25.5 18.4621 23.0376 15.9996 20 15.9996ZM20 17.4996C22.2091 17.4996 24 19.2905 24 21.4996C24 23.7088 22.2091 25.4996 20 25.4996C17.7909 25.4996 16 23.7088 16 21.4996C16 19.2905 17.7909 17.4996 20 17.4996Z" fill="#047F73"/>
</svg>
