<svg xmlns="http://www.w3.org/2000/svg" width="105" height="110" viewBox="0 0 105 110" fill="none">
  <ellipse cx="52.5" cy="54.5455" rx="52.5" ry="54.5455" fill="#2686CE"/>
  <path d="M58.7757 23.9473C60.764 23.9473 62.6119 25.0123 63.6644 26.765L67.5598 33.2518H73.6266C78.2233 33.2518 81.9497 37.1234 81.9497 41.8992V75.1587C81.9497 79.9345 78.2233 83.8061 73.6266 83.8061H28.8095C24.2127 83.8061 20.4863 79.9345 20.4863 75.1587V41.8992C20.4863 37.1234 24.2127 33.2518 28.8095 33.2518H35.3874L38.9281 26.9248C39.9597 25.0814 41.8572 23.9473 43.9095 23.9473H58.7757ZM51.218 42.5716C43.4389 42.5716 37.1327 49.1235 37.1327 57.2057C37.1327 65.2879 43.4389 71.8399 51.218 71.8399C58.9972 71.8399 65.3034 65.2879 65.3034 57.2057C65.3034 49.1235 58.9972 42.5716 51.218 42.5716ZM51.218 46.5627C56.8756 46.5627 61.4619 51.3277 61.4619 57.2057C61.4619 63.0837 56.8756 67.8487 51.218 67.8487C45.5605 67.8487 40.9741 63.0837 40.9741 57.2057C40.9741 51.3277 45.5605 46.5627 51.218 46.5627Z" fill="white"/>
</svg>