<svg width="24" height="23" viewBox="0 0 24 23" fill="none" xmlns="http://www.w3.org/2000/svg">
<path d="M14.9511 0C15.7275 0 16.449 0.40029 16.86 1.05901L18.3811 3.49695H20.75C22.5449 3.49695 24 4.95203 24 6.74695V19.247C24 21.0419 22.5449 22.497 20.75 22.497H3.25C1.45507 22.497 0 21.0419 0 19.247V6.74695C0 4.95203 1.45507 3.49695 3.25 3.49695H5.81851L7.20109 1.11906C7.6039 0.426256 8.34481 0 9.1462 0H14.9511ZM12 6.99964C8.96243 6.99964 6.5 9.46207 6.5 12.4996C6.5 15.5372 8.96243 17.9996 12 17.9996C15.0376 17.9996 17.5 15.5372 17.5 12.4996C17.5 9.46207 15.0376 6.99964 12 6.99964ZM12 8.49964C14.2091 8.49964 16 10.2905 16 12.4996C16 14.7088 14.2091 16.4996 12 16.4996C9.79086 16.4996 8 14.7088 8 12.4996C8 10.2905 9.79086 8.49964 12 8.49964Z" fill="white"/>
</svg>
