<svg xmlns="http://www.w3.org/2000/svg" width="29" height="29" viewBox="0 0 29 29" fill="none">
  <path d="M22.8779 0L3.06109 19.8169L0 29L9.18303 25.9389L29 6.12206L22.8779 0ZM16.7559 8.5708L17.9803 9.7952L6.26661 21.509L5.04221 20.2846L16.7559 8.5708ZM4.05162 25.8243L3.17578 24.9484L4.19616 21.8874L7.11265 24.8039L4.05162 25.8243ZM8.71535 23.9578L7.49095 22.7334L19.2047 11.0196L20.4291 12.244L8.71535 23.9578ZM21.6535 11.0197L17.9803 7.34646L19.2047 6.12206L22.8779 9.79532L21.6535 11.0197ZM20.4291 4.8976L22.8779 2.44874L26.5512 6.12206L24.1023 8.57086L20.4291 4.8976Z" fill="#2686CE"/>
</svg>