<svg width="27" height="37" viewBox="0 0 27 37" fill="none" xmlns="http://www.w3.org/2000/svg">
<path d="M26.8951 9.95083L25.5072 6.22853L25.9844 5.5852C26.2333 5.24974 26.1631 4.77611 25.8277 4.52731L19.9261 0.14898C19.5907 -0.0998946 19.117 -0.0297922 18.8682 0.305746L3.54458 20.9588L1.77735 23.2325C1.65249 23.3931 1.59759 23.5973 1.62512 23.799C1.65264 24.0006 1.76033 24.1826 1.92375 24.3038L4.3191 26.0815L2.339 28.7526C2.09027 29.0881 2.16068 29.5618 2.49614 29.8105C2.63151 29.9109 2.78941 29.9593 2.94587 29.9593C3.17728 29.9593 3.40558 29.8535 3.55395 29.6534L5.53361 26.9829L7.87065 28.7173C8.00602 28.8178 8.16407 28.8663 8.32069 28.8663C8.55118 28.8663 8.77881 28.7613 8.92726 28.5624L10.6555 26.2479C10.6558 26.2476 10.6559 26.2473 10.6562 26.2469C10.6564 26.2466 10.6568 26.2463 10.657 26.246L24.433 7.6767L25.3345 10.0944L18.4162 19.4162C18.1673 19.7515 18.2374 20.2252 18.5727 20.4741C18.7082 20.5746 18.8662 20.6231 19.0228 20.6231C19.2541 20.6231 19.4823 20.5175 19.6307 20.3175L26.7938 10.6658C26.9464 10.46 26.9846 10.1909 26.8951 9.95083ZM8.16657 27.0533L3.44604 23.5501L4.29075 22.4633L8.98995 25.9507L8.16657 27.0533ZM9.89288 24.7374L5.2054 21.2586L15.2494 7.72139L19.8782 11.2777L9.89288 24.7374ZM20.7794 10.0628L16.1507 6.50659L19.6322 1.81427L24.3191 5.29141L20.7794 10.0628Z" fill="black"/>
<path d="M22.8057 31.1123H0.756228C0.338639 31.1123 0 31.4509 0 31.8685C0 32.2862 0.338639 32.6248 0.756228 32.6248H22.8057C23.2233 32.6248 23.562 32.2862 23.562 31.8685C23.562 31.4509 23.2234 31.1123 22.8057 31.1123Z" fill="black"/>
<path d="M17.2933 34.7866H6.26795C5.85028 34.7866 5.51172 35.1252 5.51172 35.5428C5.51172 35.9605 5.85028 36.2991 6.26795 36.2991H17.2934C17.711 36.2991 18.0496 35.9605 18.0496 35.5428C18.0495 35.1252 17.711 34.7866 17.2933 34.7866Z" fill="black"/>
</svg>
