<svg width="33" height="33" viewBox="0 0 33 33" fill="none" xmlns="http://www.w3.org/2000/svg">
<g id="Group 295">
<path id="Vector" d="M8.13183 13.3506C9.40691 9.48691 13.0379 6.712 17.3387 6.712C19.6506 6.712 21.7388 7.53235 23.3795 8.87475L28.1525 4.10178C25.2439 1.56613 21.515 0 17.3387 0C10.8716 0 5.30372 3.68927 2.62695 9.09231L8.13183 13.3506Z" fill="#EA4335"/>
<path id="Vector_2" d="M22.8639 24.628C21.3739 25.5902 19.4804 26.1024 17.3392 26.1024C13.0549 26.1024 9.43524 23.3487 8.14709 19.5081L2.62402 23.7016C5.29746 29.1141 10.8652 32.8144 17.3392 32.8144C21.3491 32.8144 25.1809 31.3889 28.0506 28.712L22.8639 24.628Z" fill="#34A853"/>
<path id="Vector_3" d="M28.0502 28.7119C31.0513 25.9125 33.0002 21.7445 33.0002 16.4072C33.0002 15.4377 32.851 14.3936 32.6273 13.4241H17.3389V19.7632H26.139C25.7048 21.8949 24.5393 23.5459 22.8636 24.628L28.0502 28.7119Z" fill="#4A90E2"/>
<path id="Vector_4" d="M8.14664 19.5079C7.82034 18.535 7.64364 17.4924 7.64364 16.4071C7.64364 15.3383 7.81502 14.3108 8.1319 13.3506L2.62703 9.09229C1.52857 11.2941 0.931641 13.7756 0.931641 16.4071C0.931641 19.0316 1.53977 21.5072 2.62357 23.7014L8.14664 19.5079Z" fill="#FBBC05"/>
</g>
</svg>
