<svg width="63" height="54" viewBox="0 0 63 54" fill="none" xmlns="http://www.w3.org/2000/svg">
<path d="M61.2706 27.0152C61.2706 40.7638 47.9521 52.1905 31.1448 52.1905C14.3375 52.1905 1.01904 40.7638 1.01904 27.0152C1.01904 13.2665 14.3375 1.83984 31.1448 1.83984C47.9521 1.83984 61.2706 13.2665 61.2706 27.0152Z" fill="white" stroke="#EBBA16" stroke-width="2"/>
<path d="M23.8214 13.1602H16.4977C15.4865 13.1602 14.6667 13.8495 14.6667 14.6999V20.8588" fill="#EBBA16"/>
<path d="M23.8214 13.1602H16.4977C15.4865 13.1602 14.6667 13.8495 14.6667 14.6999V20.8588" stroke="black" stroke-width="4" stroke-linecap="round" stroke-linejoin="round"/>
<path d="M23.8216 40.8744H16.4979C15.4867 40.8744 14.667 40.1851 14.667 39.3347V33.1758" fill="#EBBA16"/>
<path d="M23.8216 40.8744H16.4979C15.4867 40.8744 14.667 40.1851 14.667 39.3347V33.1758" stroke="black" stroke-width="4" stroke-linecap="round" stroke-linejoin="round"/>
<path d="M38.469 40.8744H45.7927C46.8039 40.8744 47.6236 40.1851 47.6236 39.3347V33.1758" fill="#EBBA16"/>
<path d="M38.469 40.8744H45.7927C46.8039 40.8744 47.6236 40.1851 47.6236 39.3347V33.1758" stroke="black" stroke-width="4" stroke-linecap="round" stroke-linejoin="round"/>
<path d="M38.469 13.1602H45.7927C46.8039 13.1602 47.6236 13.8495 47.6236 14.6999V20.8588" fill="#EBBA16"/>
<path d="M38.469 13.1602H45.7927C46.8039 13.1602 47.6236 13.8495 47.6236 14.6999V20.8588" stroke="black" stroke-width="4" stroke-linecap="round" stroke-linejoin="round"/>
<path d="M38.4691 19.3203H23.8216C22.8105 19.3203 21.9907 20.0097 21.9907 20.86V33.1778C21.9907 34.0282 22.8105 34.7176 23.8216 34.7176H38.4691C39.4803 34.7176 40.3 34.0282 40.3 33.1778V20.86C40.3 20.0097 39.4803 19.3203 38.4691 19.3203Z" fill="#EBBA16" stroke="black" stroke-width="4"/>
</svg>
