<svg width="20" height="20" viewBox="0 0 20 20" fill="none" xmlns="http://www.w3.org/2000/svg">
<circle cx="10" cy="10" r="10" fill="black"/>
<path d="M8.22372 15L9.58736 6.81818H11.8565L10.4929 15H8.22372ZM10.9563 5.75284C10.619 5.75284 10.3402 5.64098 10.12 5.41726C9.90341 5.18999 9.81463 4.9201 9.85369 4.6076C9.89276 4.288 10.0455 4.01811 10.3118 3.79794C10.5781 3.57422 10.88 3.46236 11.2173 3.46236C11.5547 3.46236 11.8299 3.57422 12.043 3.79794C12.256 4.01811 12.3448 4.288 12.3093 4.6076C12.2738 4.9201 12.1229 5.18999 11.8565 5.41726C11.5938 5.64098 11.2937 5.75284 10.9563 5.75284Z" fill="white"/>
</svg>
