<svg width="20" height="20" viewBox="0 0 20 20" fill="none" xmlns="http://www.w3.org/2000/svg">
<circle cx="10" cy="10" r="9.5" fill="#FAFAFA" stroke="#EEEEEE"/>
<path d="M9.03531 8H10.9673V15H9.03531V8ZM10.0153 7.195C9.73531 7.195 9.49965 7.10167 9.30831 6.915C9.11698 6.72833 9.02131 6.49733 9.02131 6.222C9.02131 5.94667 9.11698 5.71567 9.30831 5.529C9.49965 5.34233 9.73298 5.249 10.0083 5.249C10.2836 5.249 10.5146 5.34233 10.7013 5.529C10.8926 5.71567 10.9883 5.94667 10.9883 6.222C10.9883 6.49733 10.895 6.72833 10.7083 6.915C10.5263 7.10167 10.2953 7.195 10.0153 7.195Z" fill="#494848"/>
</svg>
