<svg width="39" height="39" viewBox="0 0 39 39" fill="none" xmlns="http://www.w3.org/2000/svg">
<path d="M27.3817 0H11.6183C5.21195 0 0 5.21195 0 11.6183V27.3817C0 33.7881 5.21195 39 11.6183 39H27.3817C33.7881 39 39 33.7881 39 27.3817V11.6183C38.9999 5.21195 33.788 0 27.3817 0ZM35.0766 27.3817C35.0766 31.6314 31.6314 35.0766 27.3817 35.0766H11.6183C7.36856 35.0766 3.9234 31.6314 3.9234 27.3817V11.6183C3.9234 7.36849 7.36856 3.9234 11.6183 3.9234H27.3817C31.6314 3.9234 35.0766 7.36849 35.0766 11.6183V27.3817Z" fill="url(#paint0_linear_6439_409)"/>
<path d="M19.4999 9.41406C13.938 9.41406 9.41309 13.939 9.41309 19.5008C9.41309 25.0626 13.938 29.5876 19.4999 29.5876C25.0617 29.5876 29.5867 25.0626 29.5867 19.5008C29.5867 13.9389 25.0617 9.41406 19.4999 9.41406ZM19.4999 25.6642C16.0959 25.6642 13.3365 22.9048 13.3365 19.5008C13.3365 16.0969 16.096 13.3375 19.4999 13.3375C22.9038 13.3375 25.6633 16.0969 25.6633 19.5008C25.6633 22.9048 22.9038 25.6642 19.4999 25.6642Z" fill="url(#paint1_linear_6439_409)"/>
<path d="M29.6061 11.9081C30.941 11.9081 32.0231 10.826 32.0231 9.49115C32.0231 8.15632 30.941 7.07422 29.6061 7.07422C28.2713 7.07422 27.1892 8.15632 27.1892 9.49115C27.1892 10.826 28.2713 11.9081 29.6061 11.9081Z" fill="url(#paint2_linear_6439_409)"/>
<defs>
<linearGradient id="paint0_linear_6439_409" x1="19.5" y1="38.8864" x2="19.5" y2="0.302905" gradientUnits="userSpaceOnUse">
<stop stop-color="#E09B3D"/>
<stop offset="0.3" stop-color="#C74C4D"/>
<stop offset="0.6" stop-color="#C21975"/>
<stop offset="1" stop-color="#7024C4"/>
</linearGradient>
<linearGradient id="paint1_linear_6439_409" x1="19.4999" y1="38.8872" x2="19.4999" y2="0.303757" gradientUnits="userSpaceOnUse">
<stop stop-color="#E09B3D"/>
<stop offset="0.3" stop-color="#C74C4D"/>
<stop offset="0.6" stop-color="#C21975"/>
<stop offset="1" stop-color="#7024C4"/>
</linearGradient>
<linearGradient id="paint2_linear_6439_409" x1="29.6061" y1="38.8884" x2="29.6061" y2="0.304974" gradientUnits="userSpaceOnUse">
<stop stop-color="#E09B3D"/>
<stop offset="0.3" stop-color="#C74C4D"/>
<stop offset="0.6" stop-color="#C21975"/>
<stop offset="1" stop-color="#7024C4"/>
</linearGradient>
</defs>
</svg>
