<svg width="26" height="36" viewBox="0 0 26 36" fill="none" xmlns="http://www.w3.org/2000/svg">
<path d="M25.1196 12.5609C25.1196 5.62402 19.4967 0 12.5593 0C5.62288 0 0 5.62402 0 12.5609C0 16.0699 1.5354 20.0551 3.76328 23.1566L12.5603 35.7717L21.3596 23.1543C24.0118 19.362 25.1196 16.0677 25.1196 12.5609Z" fill="#0CC18E"/>
<path d="M12.5593 0C5.62288 0 0 5.62402 0 12.5609L12.5593 0Z" fill="#17DD9F"/>
<path d="M12.5603 35.7717L21.3596 23.1543C24.0112 19.362 25.1195 16.0676 25.1195 12.5609C25.1196 5.62402 19.4967 0 12.5593 0" fill="#039176"/>
<path d="M25.1196 12.5609C25.1196 5.62402 19.4967 0 12.5593 0L25.1196 12.5609Z" fill="#047F73"/>
<path d="M12.5598 17.4907C15.6776 17.4907 18.2051 14.9632 18.2051 11.8454C18.2051 8.72765 15.6776 6.2002 12.5598 6.2002C9.44207 6.2002 6.91461 8.72765 6.91461 11.8454C6.91461 14.9632 9.44207 17.4907 12.5598 17.4907Z" fill="#F44D71"/>
<path d="M6.91626 11.8454C6.91626 8.72823 9.44266 6.2002 12.5592 6.2002L6.91626 11.8454Z" fill="#FF6679"/>
<path d="M12.5593 6.20068C15.6759 6.20068 18.2045 8.72815 18.2045 11.8459C18.2045 14.9625 15.6765 17.4889 12.5593 17.4889" fill="#D60949"/>
<path d="M18.2039 11.8457C18.2039 14.9623 15.6759 17.4887 12.5587 17.4887L18.2039 11.8457Z" fill="#B50444"/>
</svg>
