<svg width="50" height="60" viewBox="0 0 50 60" fill="none" xmlns="http://www.w3.org/2000/svg">
<path d="M40.1245 4.94127C36.9172 1.75239 32.6737 0 28.1652 0C28.132 0 28.0985 0.000115715 28.0652 0.00023143C18.7619 0.0536918 11.1934 7.74597 11.1934 17.1476V21.3506C11.1934 21.8545 11.6018 22.263 12.1058 22.263H16.9719C17.4759 22.263 17.8844 21.8545 17.8844 21.3506V17.1137C17.8844 11.4213 22.4504 6.74596 28.0627 6.69157C30.8262 6.66993 33.4273 7.72271 35.3939 9.6702C37.3609 11.6183 38.4442 14.211 38.4442 16.971V25.672C38.4442 27.4845 39.8906 29.0105 41.6687 29.0735C41.7097 29.075 41.7507 29.0757 41.7917 29.0757C42.6631 29.0757 43.4833 28.7453 44.1128 28.1376C44.772 27.5014 45.1352 26.6464 45.1352 25.7302V16.971C45.1352 12.4262 43.3557 8.1541 40.1245 4.94127Z" fill="black"/>
<path d="M42.7032 21.7745C42.1993 21.7745 41.7908 21.3661 41.7908 20.8621V16.9692C41.7908 14.8859 41.3355 12.8914 40.4375 11.0415C40.2174 10.5882 40.4066 10.0423 40.8599 9.82233C41.3132 9.60212 41.8592 9.79143 42.079 10.2447C43.0985 12.345 43.6154 14.6075 43.6154 16.9692V20.8621C43.6156 21.3662 43.2072 21.7745 42.7032 21.7745Z" fill="white"/>
<path d="M38.4099 7.57889C38.1773 7.57889 37.9446 7.49048 37.7666 7.31344C36.8075 6.35983 35.7247 5.55827 34.5488 4.93133C32.6028 3.89371 30.3959 3.34534 28.1663 3.34534C27.6624 3.34534 27.2539 2.93686 27.2539 2.43292C27.2539 1.92898 27.6624 1.52051 28.1663 1.52051C30.6942 1.52051 33.1982 2.14317 35.4075 3.32115C36.741 4.0321 37.9676 4.94 39.0534 6.01951C39.4107 6.37487 39.4123 6.95252 39.0571 7.30997C38.8785 7.48909 38.6443 7.57889 38.4099 7.57889Z" fill="white"/>
<path d="M45.4374 24.8174H10.8873C8.37162 24.8174 6.3252 26.8639 6.3252 29.3795V58.3335C6.3252 58.8374 6.73367 59.2459 7.23761 59.2459H49.087C49.591 59.2459 49.9994 58.8374 49.9994 58.3335V29.3795C49.9994 26.8639 47.953 24.8174 45.4374 24.8174Z" fill="black"/>
<path d="M10.8873 24.8174C8.37162 24.8174 6.3252 26.8639 6.3252 29.3795V58.3335C6.3252 58.8374 6.73367 59.2459 7.23761 59.2459H28.1624V24.8174H10.8873Z" fill="black"/>
<path d="M29.8121 40.5326C32.4694 39.8069 34.4292 37.3731 34.4292 34.4889C34.4292 31.0342 31.6186 28.2236 28.1639 28.2236C24.7092 28.2236 21.8986 31.0342 21.8986 34.4889C21.8986 37.3731 23.8584 39.8069 26.5156 40.5326C21.9655 41.3175 18.4922 45.2899 18.4922 50.0608V54.927C18.4922 55.4309 18.9007 55.8394 19.4046 55.8394H36.9229C37.4269 55.8394 37.8354 55.4309 37.8354 54.927V50.0608C37.8356 45.2899 34.3623 41.3175 29.8121 40.5326Z" fill="#EBBA16"/>
<path d="M21.8986 34.4888C21.8986 37.373 23.8584 39.8068 26.5156 40.5325C21.9655 41.3174 18.4922 45.2898 18.4922 50.0607V54.9269C18.4922 55.4308 18.9007 55.8393 19.4046 55.8393H28.1638V28.2236C24.7092 28.2236 21.8986 31.0342 21.8986 34.4888Z" fill="#EBBA16"/>
<path d="M4.69745 22.109H0.912414C0.408474 22.109 0 21.7005 0 21.1966C0 20.6927 0.408474 20.2842 0.912414 20.2842H4.69745C5.20139 20.2842 5.60987 20.6927 5.60987 21.1966C5.60987 21.7005 5.20139 22.109 4.69745 22.109Z" fill="#047F73"/>
<path d="M5.75453 19.0129C5.52102 19.0129 5.2875 18.9238 5.10942 18.7456L2.70081 16.337C2.34452 15.9807 2.34452 15.403 2.70081 15.0466C3.0571 14.6902 3.63486 14.6903 3.99103 15.0466L6.39964 17.4552C6.75593 17.8115 6.75593 18.3892 6.39964 18.7456C6.22156 18.9238 5.98793 19.0129 5.75453 19.0129Z" fill="#047F73"/>
<path d="M3.32151 27.6162C3.08799 27.6162 2.85448 27.5271 2.67639 27.3489C2.32011 26.9926 2.32011 26.4148 2.67639 26.0586L5.085 23.65C5.44129 23.2937 6.01906 23.2937 6.37523 23.65C6.73151 24.0063 6.73151 24.5841 6.37523 24.9403L3.96662 27.3489C3.78853 27.5271 3.55502 27.6162 3.32151 27.6162Z" fill="#047F73"/>
</svg>
