<svg width="18" height="15" viewBox="0 0 18 15" fill="none" xmlns="http://www.w3.org/2000/svg">
<path d="M13.2048 14.556C12.9543 14.556 12.7267 14.5195 12.5289 14.4481C12.3323 14.3779 12.1441 14.2629 11.9703 14.1074C11.7955 13.9515 11.6288 13.7649 11.4769 13.5523C11.322 13.3356 11.1671 13.1149 11.0175 12.8963L8.96548 9.75057H5.49089V12.9763C5.49089 13.4994 5.36966 13.8975 5.13093 14.1614C4.88971 14.4267 4.58892 14.5556 4.21173 14.5556C3.82126 14.5556 3.51798 14.4252 3.28403 14.1572C3.05049 13.8909 2.93217 13.4934 2.93217 12.9763V9.75057H0.943483C0.42327 9.75057 0 9.3273 0 8.80709C0 8.28688 0.42327 7.86361 0.943483 7.86361H2.93217V6.25335H0.943483C0.42327 6.25356 0 5.83029 0 5.31029C0 4.79028 0.42327 4.3668 0.943483 4.3668H2.93217V2.01567C2.93217 1.56126 2.98157 1.20421 3.07893 0.954901C3.20058 0.666355 3.39197 0.443406 3.66723 0.265296C3.94249 0.0867714 4.23166 0 4.55114 0C4.79796 0 5.01219 0.040272 5.18656 0.120193C5.36571 0.201982 5.51746 0.308267 5.65073 0.445067C5.78649 0.583943 5.92682 0.766204 6.06839 0.986039C6.21391 1.21231 6.364 1.44792 6.52322 1.69952L8.28605 4.3668H12.1775V1.57974C12.1775 1.04956 12.291 0.648917 12.5148 0.388396C12.7394 0.127043 13.035 0 13.4182 0C13.8143 0 14.118 0.127251 14.3459 0.389018C14.5728 0.649333 14.6876 1.05018 14.6876 1.57974V4.3668H16.6998C17.22 4.3668 17.6432 4.79007 17.6432 5.31029C17.6432 5.8305 17.22 6.25356 16.6998 6.25356H14.6876V7.86402H16.6998C17.22 7.86402 17.6432 8.28708 17.6432 8.8075C17.6432 9.32772 17.22 9.75057 16.6998 9.75057H14.6876V12.7537C14.6876 13.9665 14.2027 14.556 13.2048 14.556ZM5.17951 9.12781H9.13425C9.23929 9.12781 9.33747 9.18095 9.39498 9.26897L11.5356 12.5507C11.6784 12.7604 11.8316 12.9773 11.9834 13.1903C12.1088 13.3649 12.2441 13.5172 12.3857 13.6435C12.4996 13.7456 12.6184 13.8191 12.74 13.8625C12.8706 13.91 13.0267 13.9337 13.205 13.9337C13.5677 13.9337 14.0651 13.9337 14.0651 12.7539V9.43919C14.0651 9.26731 14.2048 9.12781 14.3764 9.12781H16.7C16.877 9.12781 17.0207 8.98395 17.0207 8.80709C17.0207 8.63023 16.877 8.48637 16.7 8.48637H14.3762C14.2044 8.48637 14.0649 8.34687 14.0649 8.17499V5.94218C14.0649 5.7703 14.2044 5.6308 14.3762 5.6308H16.6998C16.8766 5.6308 17.0205 5.48715 17.0205 5.31029C17.0205 5.13342 16.8766 4.98956 16.6998 4.98956H14.3762C14.2044 4.98956 14.0649 4.85006 14.0649 4.67818V1.57974C14.0649 1.11267 13.9623 0.896776 13.876 0.797757C13.8006 0.710986 13.6875 0.622554 13.4182 0.622554C13.2167 0.622554 13.0919 0.672167 12.9873 0.794021C12.9024 0.893455 12.8007 1.11018 12.8007 1.57953V4.67798C12.8007 4.84986 12.6612 4.98936 12.4893 4.98936H8.11852C8.0139 4.98936 7.91613 4.93684 7.85862 4.84965L6.00051 2.03788C5.83839 1.78255 5.68913 1.54818 5.54444 1.32316C5.4257 1.1382 5.31132 0.989153 5.20462 0.879962C5.12595 0.798795 5.03565 0.735896 4.9277 0.686491C4.83657 0.644766 4.706 0.622554 4.55114 0.622554C4.35289 0.622554 4.17977 0.675073 4.00581 0.787793C3.83642 0.897607 3.72515 1.02527 3.65582 1.18927C3.62011 1.2806 3.55493 1.52182 3.55493 2.01567V4.67798C3.55493 4.84986 3.41543 4.98936 3.24355 4.98936H0.943483C0.766619 4.98956 0.622761 5.13342 0.622761 5.31029C0.622761 5.48715 0.766619 5.6308 0.943483 5.6308H3.24355C3.41543 5.6308 3.55493 5.7703 3.55493 5.94218V8.17519C3.55493 8.34708 3.41543 8.48658 3.24355 8.48658H0.943483C0.766619 8.48637 0.622761 8.63043 0.622761 8.80709C0.622761 8.98375 0.766619 9.12781 0.943483 9.12781H3.24355C3.41543 9.12781 3.55493 9.26731 3.55493 9.43919V12.9763C3.55493 13.3331 3.62343 13.5999 3.75276 13.7475C3.86631 13.8776 4.00332 13.9332 4.21173 13.9332C4.41164 13.9332 4.54823 13.8766 4.66946 13.7429C4.79921 13.6001 4.86812 13.3348 4.86812 12.9769V9.43919C4.86812 9.26731 5.00762 9.12781 5.17951 9.12781ZM12.4889 11.6031C12.3863 11.6031 12.2877 11.552 12.229 11.4632L11.005 9.61066C10.9421 9.51496 10.9365 9.39228 10.9911 9.2916C11.0455 9.19071 11.1512 9.12781 11.2649 9.12781H12.4889C12.6607 9.12781 12.8002 9.26731 12.8002 9.43919V11.2917C12.8002 11.4291 12.7097 11.5504 12.5785 11.59C12.5488 11.5987 12.5185 11.6031 12.4889 11.6031ZM11.8439 9.75057L12.1775 10.2554V9.75057H11.8439ZM12.4889 8.48637H10.4296C10.325 8.48637 10.2272 8.43385 10.1697 8.34666L8.69437 6.11365C8.63106 6.01795 8.62545 5.89527 8.67984 5.79438C8.73423 5.6937 8.83968 5.63059 8.95385 5.63059H12.4889C12.6607 5.63059 12.8002 5.77009 12.8002 5.94197V8.17499C12.8002 8.34708 12.6607 8.48637 12.4889 8.48637ZM10.5971 7.86361H12.1775V6.25335H9.53281L10.5971 7.86361ZM8.3095 8.48637H5.17951C5.00762 8.48637 4.86812 8.34687 4.86812 8.17499V5.94218C4.86812 5.7703 5.00762 5.6308 5.17951 5.6308H6.85328C6.95832 5.6308 7.05651 5.68394 7.11401 5.77217L8.57044 8.00518C8.63292 8.10088 8.6377 8.22294 8.58352 8.32341C8.52892 8.42409 8.42388 8.48637 8.3095 8.48637ZM5.49089 7.86361H7.73469L6.68451 6.25335H5.49089V7.86361ZM6.02854 4.98977H5.17951C5.00762 4.98977 4.86812 4.85027 4.86812 4.67839V3.37661C4.86812 3.23877 4.95863 3.11734 5.09066 3.0781C5.22248 3.03908 5.36509 3.09097 5.44024 3.20639L6.28927 4.50817C6.35175 4.60387 6.35694 4.72614 6.30255 4.82661C6.24796 4.92687 6.14292 4.98977 6.02854 4.98977Z" fill="white"/>
</svg>
