<svg width="22" height="17" viewBox="0 0 22 17" fill="none" xmlns="http://www.w3.org/2000/svg">
<path d="M15.9263 16.3283C15.6241 16.3283 15.3497 16.2873 15.1111 16.2072C14.874 16.1285 14.6469 15.9995 14.4374 15.8251C14.2266 15.6502 14.0255 15.4409 13.8423 15.2024C13.6555 14.9593 13.4687 14.7118 13.2882 14.4666L10.8133 10.9378H6.62256V14.5562C6.62256 15.143 6.47634 15.5897 6.18842 15.8856C5.89749 16.1832 5.5347 16.3278 5.07977 16.3278C4.60883 16.3278 4.24304 16.1816 3.96087 15.881C3.6792 15.5822 3.53649 15.1363 3.53649 14.5562V10.9378H1.13794C0.510506 10.9378 0 10.463 0 9.87942C0 9.29587 0.510506 8.82106 1.13794 8.82106H3.53649V7.01475H1.13794C0.510506 7.01498 0 6.54017 0 5.95685C0 5.37353 0.510506 4.89849 1.13794 4.89849H3.53649V2.26109C3.53649 1.75136 3.59608 1.35084 3.7135 1.07117C3.86022 0.747488 4.09106 0.497394 4.42305 0.297598C4.75504 0.0973365 5.10381 0 5.48913 0C5.78682 0 6.04521 0.0451754 6.25552 0.134827C6.47159 0.226575 6.65461 0.345801 6.81535 0.499257C6.97909 0.655042 7.14834 0.859495 7.31909 1.1061C7.4946 1.35992 7.67562 1.62422 7.86765 1.90644L9.9938 4.89849H14.6873V1.77208C14.6873 1.17735 14.8242 0.727928 15.0941 0.435686C15.365 0.142512 15.7215 0 16.1837 0C16.6614 0 17.0277 0.142745 17.3026 0.436384C17.5763 0.728394 17.7147 1.17805 17.7147 1.77208V4.89849H20.1416C20.769 4.89849 21.2795 5.3733 21.2795 5.95685C21.2795 6.54041 20.769 7.01498 20.1416 7.01498H17.7147V8.82153H20.1416C20.769 8.82153 21.2795 9.2961 21.2795 9.87989C21.2795 10.4634 20.769 10.9378 20.1416 10.9378H17.7147V14.3066C17.7147 15.667 17.1299 16.3283 15.9263 16.3283ZM6.247 10.2392H11.0168C11.1435 10.2392 11.2619 10.2988 11.3313 10.3975L13.9131 14.0789C14.0854 14.3141 14.2701 14.5574 14.4532 14.7963C14.6044 14.9921 14.7676 15.1631 14.9384 15.3047C15.0758 15.4192 15.219 15.5017 15.3658 15.5503C15.5232 15.6036 15.7115 15.6302 15.9266 15.6302C16.364 15.6302 16.9639 15.6302 16.9639 14.3068V10.5885C16.9639 10.3957 17.1324 10.2392 17.3394 10.2392H20.1418C20.3554 10.2392 20.5287 10.0778 20.5287 9.87942C20.5287 9.68102 20.3554 9.51965 20.1418 9.51965H17.3392C17.1319 9.51965 16.9636 9.36317 16.9636 9.17036V6.66569C16.9636 6.47288 17.1319 6.31639 17.3392 6.31639H20.1416C20.3549 6.31639 20.5284 6.15525 20.5284 5.95685C20.5284 5.75845 20.3549 5.59708 20.1416 5.59708H17.3392C17.1319 5.59708 16.9636 5.4406 16.9636 5.24779V1.77208C16.9636 1.24814 16.8399 1.00597 16.7358 0.89489C16.6449 0.797554 16.5085 0.698355 16.1837 0.698355C15.9406 0.698355 15.7901 0.754008 15.664 0.890699C15.5616 1.00224 15.4389 1.24535 15.4389 1.77185V5.24755C15.4389 5.44036 15.2706 5.59685 15.0633 5.59685H9.79176C9.66557 5.59685 9.54764 5.53793 9.47829 5.44013L7.23722 2.28601C7.04168 1.99959 6.86166 1.73669 6.68716 1.48427C6.54394 1.27678 6.40599 1.10959 6.2773 0.987104C6.18241 0.896055 6.0735 0.825497 5.9433 0.770076C5.83339 0.723271 5.67591 0.698355 5.48913 0.698355C5.25003 0.698355 5.04122 0.757269 4.83141 0.883713C4.6271 1.0069 4.49291 1.15011 4.40928 1.33407C4.36622 1.43653 4.2876 1.70711 4.2876 2.26109V5.24755C4.2876 5.44036 4.11935 5.59685 3.91205 5.59685H1.13794C0.92462 5.59708 0.751113 5.75845 0.751113 5.95685C0.751113 6.15525 0.92462 6.31639 1.13794 6.31639H3.91205C4.11935 6.31639 4.2876 6.47288 4.2876 6.66569V9.17059C4.2876 9.3634 4.11935 9.51988 3.91205 9.51988H1.13794C0.92462 9.51965 0.751113 9.68126 0.751113 9.87942C0.751113 10.0776 0.92462 10.2392 1.13794 10.2392H3.91205C4.11935 10.2392 4.2876 10.3957 4.2876 10.5885V14.5562C4.2876 14.9565 4.37022 15.2558 4.5262 15.4213C4.66316 15.5673 4.8284 15.6297 5.07977 15.6297C5.32088 15.6297 5.48563 15.5662 5.63184 15.4162C5.78832 15.256 5.87145 14.9584 5.87145 14.5569V10.5885C5.87145 10.3957 6.0397 10.2392 6.247 10.2392ZM15.0628 13.0158C14.9391 13.0158 14.8202 12.9586 14.7493 12.8589L13.2732 10.7808C13.1973 10.6735 13.1905 10.5359 13.2564 10.4229C13.322 10.3098 13.4494 10.2392 13.5866 10.2392H15.0628C15.2701 10.2392 15.4384 10.3957 15.4384 10.5885V12.6666C15.4384 12.8207 15.3292 12.9567 15.171 13.0012C15.1352 13.011 15.0986 13.0158 15.0628 13.0158ZM14.2849 10.9378L14.6873 11.5041V10.9378H14.2849ZM15.0628 9.51965H12.5791C12.4529 9.51965 12.335 9.46073 12.2657 9.36293L10.4863 6.85803C10.4099 6.75068 10.4032 6.61306 10.4688 6.49989C10.5344 6.38695 10.6615 6.31616 10.7992 6.31616H15.0628C15.2701 6.31616 15.4384 6.47264 15.4384 6.66545V9.17036C15.4384 9.3634 15.2701 9.51965 15.0628 9.51965ZM12.7812 8.82106H14.6873V7.01475H11.4975L12.7812 8.82106ZM10.0221 9.51965H6.247C6.0397 9.51965 5.87145 9.36317 5.87145 9.17036V6.66569C5.87145 6.47288 6.0397 6.31639 6.247 6.31639H8.26574C8.39243 6.31639 8.51086 6.37601 8.58021 6.47497L10.3368 8.97987C10.4122 9.08722 10.4179 9.22415 10.3526 9.33685C10.2867 9.44979 10.1601 9.51965 10.0221 9.51965ZM6.62256 8.82106H9.32882L8.06219 7.01475H6.62256V8.82106ZM7.27102 5.59731H6.247C6.0397 5.59731 5.87145 5.44083 5.87145 5.24802V3.78774C5.87145 3.63312 5.98061 3.4969 6.13985 3.45288C6.29883 3.40911 6.47084 3.46732 6.56147 3.59679L7.58549 5.05707C7.66085 5.16442 7.66711 5.30158 7.60151 5.41428C7.53566 5.52676 7.40898 5.59731 7.27102 5.59731Z" fill="black"/>
</svg>
