<svg width="61" height="28" viewBox="0 0 61 28" fill="none" xmlns="http://www.w3.org/2000/svg">
<path d="M47.7737 9.16602C46.712 9.16602 45.8486 10.0319 45.8486 11.0975V12.9788H49.7027V11.0975C49.7027 10.0319 48.8355 9.16602 47.7737 9.16602Z" fill="black"/>
<path d="M53.1227 0H7.43875C3.35021 0 0 3.35278 0 7.44132V20.5587C0 24.6537 3.35021 28 7.43875 28H53.1227C57.2112 28 60.5614 24.6537 60.5614 20.5587V7.44132C60.5614 3.35278 57.2112 0 53.1227 0ZM16.1841 16.032L17.9687 17.9751L14.8775 20.2945L13.6096 17.9751C13.4227 17.644 13.1302 16.9946 12.7192 16.032C12.2695 17.0899 11.9705 17.7342 11.8224 17.9751L10.5364 20.2945L7.35886 17.9751L9.28007 16.032C9.82126 15.4973 10.3457 15.0386 10.8637 14.6623C10.3354 14.6146 9.64086 14.5167 8.78398 14.3556L6.12315 13.9227L7.35757 10.2993L9.74395 11.3843C9.99521 11.4977 10.6202 11.8546 11.6149 12.446C11.4023 11.4835 11.2657 10.7683 11.2039 10.2993L10.865 7.70547H14.6546L14.3479 10.2993C14.2809 10.9307 14.134 11.6458 13.9162 12.446C14.3531 12.227 14.6417 12.0814 14.7783 12.0015C15.2576 11.7347 15.6274 11.5505 15.8761 11.4319L18.2638 10.2993L19.4467 13.9227L16.8064 14.4742C16.3232 14.567 15.6068 14.6275 14.6546 14.6623C15.3001 15.1674 15.8052 15.621 16.1841 16.032ZM33.6786 16.032L35.4658 17.9751L32.3746 20.2932L31.108 17.9751C30.9211 17.644 30.6286 16.9946 30.2189 16.032C29.7679 17.0899 29.4715 17.7342 29.3233 17.9751L28.0348 20.2932L24.8585 17.9751L26.7798 16.032C27.3209 15.4973 27.8441 15.0386 28.3634 14.6623C27.8376 14.6146 27.1405 14.5167 26.2837 14.3556L23.6215 13.9227L24.8572 10.2993L27.2449 11.3843C27.4936 11.4977 28.1211 11.8546 29.1146 12.446C28.8968 11.4835 28.7602 10.7683 28.7023 10.2993L28.3621 7.70805H32.153L31.845 10.2993C31.7754 10.9307 31.6311 11.6458 31.4159 12.446C31.8502 12.227 32.1388 12.0814 32.2767 12.0015C32.7534 11.7347 33.1245 11.5505 33.3745 11.4319L35.7635 10.2993L36.9476 13.9227L34.3048 14.4742C33.8216 14.567 33.1078 14.6275 32.1543 14.6623C32.7947 15.1674 33.3011 15.621 33.6786 16.032ZM53.2812 19.3152C53.2812 20.1128 52.6279 20.7648 51.8316 20.7648H43.7202C42.9226 20.7648 42.2706 20.1128 42.2706 19.3152V14.4265C42.2706 13.6289 42.9226 12.9769 43.7202 12.9769H43.9161V11.0956C43.9161 8.96567 45.6466 7.23258 47.7739 7.23258C49.9026 7.23258 51.6344 8.96438 51.6344 11.0956V12.9769H51.8303C52.6253 12.9769 53.2799 13.6289 53.2799 14.4265V19.3152H53.2812Z" fill="black"/>
</svg>
