<svg width="14" height="26" viewBox="0 0 14 26" fill="none" xmlns="http://www.w3.org/2000/svg">
<path d="M0.995641 25.9916C0.798503 25.9908 0.606009 25.9317 0.442358 25.8217C0.278707 25.7118 0.151202 25.556 0.0758724 25.3738C0.000542977 25.1916 -0.0192493 24.9912 0.018984 24.7978C0.0572173 24.6044 0.15177 24.4267 0.290755 24.2869L11.5789 12.9937L0.290755 1.70052C0.104534 1.51319 8.96894e-06 1.25977 8.96894e-06 0.995631C8.96894e-06 0.731489 0.104534 0.478078 0.290755 0.290746C0.478087 0.104525 0.731498 0 0.995641 0C1.25978 0 1.51319 0.104525 1.70053 0.290746L13.6986 12.2888C13.8848 12.4761 13.9893 12.7295 13.9893 12.9937C13.9893 13.2578 13.8848 13.5112 13.6986 13.6986L1.70053 25.6966C1.51388 25.8844 1.26039 25.9905 0.995641 25.9916Z" fill="black"/>
</svg>
