	<svg
							width="300"
							height="117"
							viewBox="0 0 300 117"
							fill="none"
							xmlns="http://www.w3.org/2000/svg"
						>
							<path
								d="M11.2 91.7C7.26667 91.7 4.13333 90.2 1.8 87.2C1.6 87 1.5 86.7667 1.5 86.5C1.5 85.9 1.9 85.5 2.7 85.3C2.76667 85.3 2.8 85.3 2.8 85.3C2.93333 85.2333 3 85.2 3 85.2C3.06667 85.2 3 85.2333 2.8 85.3C3 85.2333 3.2 85.2 3.4 85.2L2.8 85.3H2.7C2.5 85.3667 2.4 85.5 2.4 85.7C2.4 86.1667 3.23333 86.8333 4.9 87.7C6.63333 88.6333 8.86667 89.1 11.6 89.1C14.0667 89.1 16.7667 88.5 19.7 87.3C22.7 86.1 25.7333 83.9 28.8 80.7C31.9333 77.5 34.9333 73.0333 37.8 67.3C40.6667 61.5 43.2 54.0667 45.4 45C47.6667 35.8667 49.3667 24.7667 50.5 11.7C44.8333 12.4333 39.1667 13.6 33.5 15.2C27.8333 16.7333 22.7 18.7 18.1 21.1C13.5 23.4333 9.8 26.1 7 29.1C4.2 32.0333 2.8 35.2667 2.8 38.8C2.8 39.2 2.8 39.6 2.8 40C2.86667 40.4 2.93333 40.8 3 41.2C3.33333 42.6667 3.76667 43.9667 4.3 45.1C4.9 46.2333 5.73333 47.1333 6.8 47.8C7.4 48.2 7.7 48.5667 7.7 48.9C7.7 49.3 7.43333 49.5 6.9 49.5C6.43333 49.5 5.96667 49.3667 5.5 49.1C3.9 48.1 2.73333 46.8333 2 45.3C1.33333 43.7667 0.833333 42.2333 0.5 40.7C0.3 39.7667 0.2 38.8667 0.2 38C0.2 34.9333 1.1 32.1 2.9 29.5C4.76667 26.8333 7.16667 24.4333 10.1 22.3C13.1 20.1 16.3667 18.1667 19.9 16.5C23.5 14.8333 27.0333 13.4333 30.5 12.3C34.0333 11.1667 37.2333 10.3333 40.1 9.8C41.6333 9.46667 43.3 9.16667 45.1 8.9C46.9 8.63333 48.8 8.4 50.8 8.2C50.8667 7.26666 50.9333 6.33333 51 5.4C51.0667 4.46666 51.1333 3.53333 51.2 2.6C51.2667 1.79999 51.5333 1.19999 52 0.799996C52.4667 0.399997 52.9667 0.199997 53.5 0.199997C54.0333 0.199997 54.5333 0.399997 55 0.799996C55.5333 1.19999 55.8 1.79999 55.8 2.6C55.8 3.46666 55.7667 4.33333 55.7 5.2C55.7 6.06666 55.6667 6.93333 55.6 7.79999C56.6 7.73333 57.6 7.7 58.6 7.7C59.6 7.63333 60.6333 7.6 61.7 7.6C65.5 7.6 69.1667 7.9 72.7 8.5C76.3 9.03333 79.4667 9.96667 82.2 11.3C85 12.6333 87.0667 14.4667 88.4 16.8C88.6667 17.1333 88.8 17.5 88.8 17.9C88.8 18.4333 88.6 18.7 88.2 18.7C87.7333 18.7 87.3 18.3667 86.9 17.7C85.5 15.3 82.7 13.5333 78.5 12.4C74.3667 11.2667 69.5333 10.7 64 10.7C62.6 10.7 61.1667 10.7333 59.7 10.8C58.3 10.8667 56.8667 10.9667 55.4 11.1C54.6667 22.1667 53.1667 32.0333 50.9 40.7C48.7 49.3667 46 56.9 42.8 63.3C39.6 69.7 36.1667 75 32.5 79.2C28.8333 83.4 25.1333 86.5333 21.4 88.6C17.7333 90.6667 14.3333 91.7 11.2 91.7ZM69.0523 92.5C67.519 92.5 66.3523 91.8667 65.5523 90.6C64.819 89.3333 64.4523 87.8667 64.4523 86.2C64.4523 84.2 64.819 81.9 65.5523 79.3C66.3523 76.7667 67.319 74.1667 68.4523 71.5C69.5857 68.7667 70.7523 66.1333 71.9523 63.6C73.219 61.0667 74.319 58.8 75.2523 56.8C76.2523 54.8 76.919 53.2667 77.2523 52.2C77.6523 51 77.8523 50.1 77.8523 49.5C77.8523 48.8333 77.619 48.5 77.1523 48.5C76.619 48.5 75.819 48.9333 74.7523 49.8C73.7523 50.6 72.7523 51.5 71.7523 52.5C70.819 53.5 70.1523 54.2333 69.7523 54.7C67.619 57.1 65.6857 59.7667 63.9523 62.7C62.2857 65.6333 61.2523 68.1333 60.8523 70.2C60.7857 70.5333 60.6523 71.1333 60.4523 72C60.319 72.8667 60.019 73.2667 59.5523 73.2C58.8857 73.0667 58.419 72.6667 58.1523 72C57.9523 71.2667 57.819 70.6 57.7523 70C57.7523 69.6667 57.719 69.3333 57.6523 69C57.6523 68.6 57.6523 68.2 57.6523 67.8C57.6523 64.5333 58.019 60.8333 58.7523 56.7C59.4857 52.5667 60.419 48.3333 61.5523 44C62.7523 39.6667 64.019 35.6333 65.3523 31.9C66.6857 28.1667 67.9523 25.0667 69.1523 22.6C69.7523 21.4 70.419 20.2667 71.1523 19.2C71.8857 18.0667 72.619 17.5 73.3523 17.5C73.819 17.5 74.219 17.7333 74.5523 18.2C74.9523 18.6667 75.1523 19.0667 75.1523 19.4C75.1523 19.6667 74.6857 20.7333 73.7523 22.6C72.8857 24.4 71.7523 26.8 70.3523 29.8C68.9523 32.7333 67.519 36.1 66.0523 39.9C64.6523 43.7 63.3857 47.7667 62.2523 52.1C61.119 56.4333 60.3523 60.8333 59.9523 65.3C59.9523 65.3667 59.919 65.7 59.8523 66.3C59.7857 66.9 59.719 67.5 59.6523 68.1C59.6523 68.7 59.6523 69 59.6523 69V68.9H59.7523C59.8857 68.1 60.119 67.3333 60.4523 66.6C60.8523 65.8667 61.2523 65.1667 61.6523 64.5C63.6523 60.5 66.219 56.6667 69.3523 53C70.8857 51.2667 72.4857 49.7667 74.1523 48.5C75.819 47.1667 77.5523 46.5 79.3523 46.5C80.0857 46.5 80.719 46.7 81.2523 47.1C81.7857 47.5 82.0523 48.2667 82.0523 49.4C82.0523 50.8667 81.5523 52.6 80.5523 54.6C79.619 56.5333 78.4523 58.5667 77.0523 60.7C75.719 62.7667 74.4857 64.7333 73.3523 66.6C71.819 69.2 70.419 71.9667 69.1523 74.9C67.9523 77.7667 67.3523 80.7667 67.3523 83.9C67.3523 84.8333 67.419 85.8333 67.5523 86.9C67.7523 87.9667 68.0523 88.8667 68.4523 89.6C68.919 90.4 69.5523 90.8 70.3523 90.8C70.8857 90.8 71.3857 90.6333 71.8523 90.3C72.3857 90.0333 72.819 89.7667 73.1523 89.5C73.7523 88.9 74.1523 88.6 74.3523 88.6C74.5523 88.6 74.6523 88.7 74.6523 88.9C74.6523 89.3 74.4857 89.6667 74.1523 90C73.819 90.4 73.4857 90.7 73.1523 90.9C72.6857 91.3 72.0523 91.6667 71.2523 92C70.519 92.3333 69.7857 92.5 69.0523 92.5ZM83.0898 74.2C82.0232 74.2 81.1232 73.6333 80.3898 72.5C79.8565 71.5667 79.5898 70.4667 79.5898 69.2C79.5898 67.4 79.9898 65.3667 80.7898 63.1C81.5898 60.8333 82.6565 58.6333 83.9898 56.5C85.3898 54.3667 86.9232 52.5667 88.5898 51.1C90.3232 49.5667 92.0898 48.6667 93.8898 48.4C94.5565 48.3333 95.3565 48.5 96.2898 48.9C97.2232 49.3 97.9898 49.8 98.5898 50.4C98.7232 49.7333 98.8232 49.1 98.8898 48.5C98.9565 47.8333 98.9898 47.2 98.9898 46.6C98.9898 44.7333 98.6898 43.0667 98.0898 41.6C97.4898 40.1333 96.4232 39.1667 94.8898 38.7C94.2898 38.5 93.6232 38.4 92.8898 38.4C92.4898 38.4 92.0565 38.4667 91.5898 38.6C91.1232 38.6667 90.6232 38.8667 90.0898 39.2C89.5565 39.4667 89.0232 39.9 88.4898 40.5C87.9565 41.0333 87.5898 41.5333 87.3898 42C87.2565 42.2667 86.9232 42.8667 86.3898 43.8C85.8565 44.6667 85.4232 45.0667 85.0898 45C84.8232 44.9333 84.6898 44.7 84.6898 44.3C84.6898 44.1 84.7565 43.8 84.8898 43.4C85.2898 42.1333 86.0565 41.0667 87.1898 40.2C88.3232 39.2667 89.5565 38.5333 90.8898 38C92.2232 37.4 93.3232 37.0667 94.1898 37C94.3898 37 94.5898 37 94.7898 37C94.9898 36.9333 95.1565 36.9 95.2898 36.9C96.3565 36.9 97.3232 37.0667 98.1898 37.4C99.1232 37.6667 99.8565 38.0333 100.39 38.5C101.257 39.1667 101.957 40.0333 102.49 41.1C103.023 42.1 103.29 43.3667 103.29 44.9C103.29 45.3667 103.257 45.8667 103.19 46.4C103.123 46.9333 103.023 47.4667 102.89 48C102.69 49.0667 102.423 50.4333 102.09 52.1C101.823 53.7 101.523 55.3667 101.19 57.1C100.923 58.8333 100.69 60.4333 100.49 61.9C100.357 63.3 100.29 64.3 100.29 64.9C100.29 65.5667 100.49 66.3333 100.89 67.2C101.357 68 101.957 68.4 102.69 68.4C103.09 68.4 103.523 68.2 103.99 67.8C104.523 67.4 105.057 66.7333 105.59 65.8C105.923 65.2667 106.223 65 106.49 65C106.823 65 106.99 65.2 106.99 65.6C106.99 66.1333 106.723 66.7667 106.19 67.5C104.923 69.3 103.323 70.2 101.39 70.2C99.7898 70.2 98.6565 69.5333 97.9898 68.2C96.8565 66 96.2898 64.0333 96.2898 62.3C96.2898 60.5 96.2565 59.2667 96.1898 58.6C95.8565 59.4 95.2232 60.6667 94.2898 62.4C93.3565 64.0667 92.2565 65.8333 90.9898 67.7C89.7232 69.5 88.3898 71.0333 86.9898 72.3C85.5898 73.5667 84.2898 74.2 83.0898 74.2ZM84.6898 71.2C85.3565 71.2 86.1232 70.8667 86.9898 70.2C87.9232 69.5333 88.8898 68.5 89.8898 67.1C91.2232 65.1667 92.4565 63 93.5898 60.6C94.7232 58.2 95.7565 55.8667 96.6898 53.6C95.8898 51.6667 94.8898 50.7 93.6898 50.7C92.6232 50.7 91.4898 51.2667 90.2898 52.4C89.0898 53.5333 87.9565 54.8333 86.8898 56.3C85.5565 58.3 84.4898 60.3 83.6898 62.3C82.9565 64.3 82.5898 66 82.5898 67.4C82.5898 69.9333 83.2898 71.2 84.6898 71.2ZM127.195 76.3C126.328 76.3 125.561 75.7667 124.895 74.7C124.228 73.5667 123.895 71.4333 123.895 68.3C123.895 65.8333 124.095 63.1333 124.495 60.2C124.895 57.2 125.328 54.2333 125.795 51.3C126.328 48.3667 126.795 45.7667 127.195 43.5C127.595 41.1667 127.795 39.4667 127.795 38.4C127.795 36.5333 127.228 35.6 126.095 35.6C125.028 35.6 123.928 36.1333 122.795 37.2C121.728 38.2667 120.695 39.5667 119.695 41.1C118.761 42.6333 117.928 44.1333 117.195 45.6C116.528 47 116.095 48.0333 115.895 48.7C114.961 51.3 114.295 53.9 113.895 56.5C113.495 59.0333 113.295 61.6667 113.295 64.4C113.295 65.5333 113.328 66.7 113.395 67.9C113.528 69.1 113.628 70.3333 113.695 71.6C113.828 72.2667 113.628 73.1 113.095 74.1C112.628 75.0333 112.061 75.5 111.395 75.5C110.928 75.5 110.528 75.2 110.195 74.6C109.861 74 109.628 73.4667 109.495 73C109.228 72.2 109.028 71.3667 108.895 70.5C108.761 69.5667 108.628 68.7667 108.495 68.1C108.028 65.3667 107.595 62.6 107.195 59.8C106.795 56.9333 106.228 54.1667 105.495 51.5C105.295 50.7667 105.028 50 104.695 49.2C104.428 48.3333 103.995 47.6333 103.395 47.1C103.261 46.9667 103.061 46.8333 102.795 46.7C102.528 46.5 102.395 46.3333 102.395 46.2C102.395 45.9333 102.761 45.8 103.495 45.8C104.295 45.8 105.095 46.2 105.895 47C106.695 47.8 107.428 48.8667 108.095 50.2C108.895 51.8667 109.561 53.6333 110.095 55.5C110.695 57.3667 111.161 58.8667 111.495 60C111.895 57.6 112.328 55.4667 112.795 53.6C113.261 52 113.895 50.1 114.695 47.9C115.495 45.6333 116.495 43.4333 117.695 41.3C118.895 39.1 120.328 37.3 121.995 35.9C123.661 34.4333 125.595 33.7 127.795 33.7C130.995 33.7 132.595 35.5667 132.595 39.3C132.595 41.2333 132.261 43.3667 131.595 45.7C130.928 47.9667 130.195 50.0667 129.395 52C128.661 53.9333 128.161 55.2667 127.895 56C127.561 56.9333 127.195 58.2 126.795 59.8C126.461 61.4 126.161 63.0667 125.895 64.8C125.695 66.5333 125.595 68.1333 125.595 69.6C125.595 70.8667 125.728 71.9333 125.995 72.8C126.328 73.6 126.828 74 127.495 74C128.161 74 128.761 73.7 129.295 73.1C129.828 72.4333 130.261 71.8333 130.595 71.3C130.995 70.7667 131.195 70.6667 131.195 71C131.328 72 130.961 73.1333 130.095 74.4C129.295 75.6667 128.328 76.3 127.195 76.3ZM130.008 89.5C129.341 89.5 128.808 89.3 128.408 88.9C127.941 88.5 127.874 88.0333 128.208 87.5C129.141 86.1 130.041 84.1 130.908 81.5C131.708 78.9667 132.408 76.3 133.008 73.5C133.674 70.7 134.208 68.1667 134.608 65.9C135.074 63.5667 135.408 61.9333 135.608 61C134.408 59.8667 133.808 58.6 133.808 57.2C133.808 56.1333 134.041 55.2333 134.508 54.5C135.041 53.7667 135.441 53.4333 135.708 53.5C135.841 53.5 136.008 53.5667 136.208 53.7C136.474 53.7667 136.608 53.8667 136.608 54C137.008 50.8667 137.341 47.7667 137.608 44.7C137.874 41.5667 138.008 38.7 138.008 36.1C138.008 33.9667 137.908 32.0667 137.708 30.4C137.508 28.7333 137.208 27.4 136.808 26.4C136.408 25.4 136.208 24.6333 136.208 24.1C136.208 23.3667 136.408 23 136.808 23C137.274 23 137.641 23.3 137.908 23.9C138.641 25.3667 139.174 27.6667 139.508 30.8C139.908 33.9333 140.108 37.5 140.108 41.5C140.108 44.2333 140.041 47.1333 139.908 50.2C139.774 53.2 139.541 56.2 139.208 59.2C140.408 58.1333 141.641 57.1 142.908 56.1C144.174 55.0333 145.274 53.9333 146.208 52.8V52.7C146.208 52.5667 146.141 52.4333 146.008 52.3C145.941 52.1667 145.908 51.9667 145.908 51.7C145.908 51.2333 146.241 50.6667 146.908 50C147.574 49.3333 148.441 48.4 149.508 47.2C150.641 45.9333 151.808 44.8 153.008 43.8C154.208 42.7333 155.308 42.2333 156.308 42.3C157.108 42.3 157.508 42.5667 157.508 43.1C157.508 43.7 156.941 44.6 155.808 45.8C154.674 47 153.308 48.2667 151.708 49.6C150.174 50.9333 148.741 52.1667 147.408 53.3C146.141 54.3667 145.308 55.1 144.908 55.5L141.108 59.7L139.108 61.8C139.974 64 140.974 66.1667 142.108 68.3C143.241 70.4333 144.508 72.2 145.908 73.6C147.374 75 148.874 75.7 150.408 75.7C152.008 75.7 153.641 74.7333 155.308 72.8C156.441 71.4 157.408 69.8333 158.208 68.1C159.008 66.3667 159.674 65.0667 160.208 64.2C160.541 63.5333 160.874 63.1 161.208 62.9C161.541 62.6333 161.808 62.5 162.008 62.5C162.474 62.5 162.641 62.8333 162.508 63.5C162.241 64.3667 161.774 65.4667 161.108 66.8C160.441 68.1333 159.774 69.4 159.108 70.6C158.508 71.7333 158.041 72.5333 157.708 73C156.441 74.8667 155.174 76.2333 153.908 77.1C152.641 77.9667 151.408 78.4 150.208 78.4C148.674 78.4 147.174 77.8333 145.708 76.7C144.241 75.5667 142.874 74.1 141.608 72.3C140.408 70.5 139.308 68.6 138.308 66.6C137.574 71.6667 136.674 76.2 135.608 80.2C134.541 84.2667 133.374 87.0667 132.108 88.6C131.508 89.2 130.808 89.5 130.008 89.5ZM183.838 117C181.238 117 179.138 116.3 177.538 114.9C175.938 113.567 175.138 111.767 175.138 109.5C175.138 108.367 175.372 107.1 175.838 105.7C176.305 104.367 177.038 102.967 178.038 101.5C179.572 99.2333 181.772 96.8 184.638 94.2C187.572 91.6667 191.138 89.2667 195.338 87C199.605 84.8 204.472 83.1333 209.938 82C210.005 81.2667 210.038 80.5 210.038 79.7C210.038 78.9667 210.038 78.2333 210.038 77.5C210.038 72.1 209.672 67.2 208.938 62.8C208.205 58.3333 207.372 54.5 206.438 51.3C203.772 57.9 201.405 63.4 199.338 67.8C197.272 72.1333 196.138 75.7667 195.938 78.7C195.872 79.1667 195.572 79.6667 195.038 80.2C194.572 80.8 194.038 81.1 193.438 81.1C192.972 81.1 192.505 80.7667 192.038 80.1C191.638 79.5 191.438 78.4667 191.438 77C191.438 75.4667 191.605 73.4667 191.938 71C192.272 68.5333 192.438 66.1667 192.438 63.9C192.438 61.7667 192.138 59.9 191.538 58.3C190.938 56.7 189.772 55.8667 188.038 55.8C186.638 55.8 185.338 56.4667 184.138 57.8C183.872 58.0667 183.672 58.2 183.538 58.2C183.338 58.2 183.238 58.0333 183.238 57.7C183.238 57.3667 183.338 57 183.538 56.6C184.072 55.2667 185.038 54.3333 186.438 53.8C187.905 53.2667 189.105 53 190.038 53C192.438 53 194.072 53.6667 194.938 55C195.872 56.2667 196.338 57.9667 196.338 60.1C196.338 62.0333 196.072 64.2667 195.538 66.8C195.072 69.2667 194.572 71.8667 194.038 74.6C195.372 72.1333 197.072 68.7 199.138 64.3C201.205 59.9 203.472 54.9333 205.938 49.4L205.038 46.8V46.5C205.038 45.8333 205.238 45.3333 205.638 45C206.105 44.6667 206.572 44.5 207.038 44.5C207.438 44.5 207.838 44.6 208.238 44.8C208.638 45 208.905 45.3 209.038 45.7C209.838 47.5 210.505 49.9667 211.038 53.1C211.638 56.2333 212.072 59.6333 212.338 63.3C212.672 66.9 212.838 70.4667 212.838 74C212.838 76.6667 212.738 79.1667 212.538 81.5C214.205 81.1667 215.872 80.9333 217.538 80.8C219.205 80.6667 220.972 80.5333 222.838 80.4H223.238C223.838 80.4 224.138 80.5333 224.138 80.8C224.138 81.3333 223.438 81.6667 222.038 81.8C220.438 81.9333 218.805 82.1 217.138 82.3C215.538 82.5667 213.905 82.9 212.238 83.3C210.838 90.9667 208.638 97.1 205.638 101.7C202.705 106.367 199.672 109.867 196.538 112.2C194.272 113.867 192.038 115.067 189.838 115.8C187.705 116.6 185.705 117 183.838 117ZM183.038 114.9C184.172 114.9 185.472 114.667 186.938 114.2C188.472 113.733 190.072 113 191.738 112C197.072 108.867 201.205 104.9 204.138 100.1C207.072 95.3667 208.938 89.9667 209.738 83.9C206.205 84.8333 202.638 86.1667 199.038 87.9C195.438 89.7 192.072 91.7667 188.938 94.1C185.872 96.5 183.238 99.1333 181.038 102C179.905 103.467 179.072 104.867 178.538 106.2C178.005 107.533 177.738 108.767 177.738 109.9C177.738 111.433 178.205 112.633 179.138 113.5C180.072 114.433 181.372 114.9 183.038 114.9ZM227.418 78.5C225.218 78.5 223.418 77.8333 222.018 76.5C220.685 75.1667 219.685 73.4667 219.018 71.4C218.351 69.2667 218.018 67.0333 218.018 64.7C218.018 63.3 218.151 61.9667 218.418 60.7C218.685 59.4333 218.951 58.4 219.218 57.6C219.151 57.1333 219.085 56.6667 219.018 56.2C219.018 55.6667 219.018 55.1333 219.018 54.6C219.018 52.6667 219.218 50.5667 219.618 48.3C220.018 46.0333 220.651 43.8667 221.518 41.8C222.451 39.7333 223.585 38.0667 224.918 36.8C226.318 35.4667 228.018 34.8 230.018 34.8C231.751 34.8 233.451 35.5333 235.118 37C236.785 38.4 238.251 40.4667 239.518 43.2C240.251 44.7333 240.751 46.4 241.018 48.2C241.351 49.9333 241.518 51.7 241.518 53.5C241.518 55.9667 241.251 58.4333 240.718 60.9C240.251 63.3 239.551 65.5667 238.618 67.7C237.951 69.2333 237.051 70.8667 235.918 72.6C234.851 74.2667 233.618 75.6667 232.218 76.8C230.818 77.9333 229.218 78.5 227.418 78.5ZM227.918 76.3C230.185 76.3 232.285 74.7333 234.218 71.6C235.618 69.4 236.618 66.9 237.218 64.1C237.818 61.2333 238.118 58.3667 238.118 55.5C238.118 53.3667 237.985 51.3 237.718 49.3C237.451 47.3 237.051 45.3667 236.518 43.5C236.051 41.8333 235.251 40.3667 234.118 39.1C233.051 37.7667 231.518 37.2 229.518 37.4C227.918 37.5333 226.518 38.3333 225.318 39.8C224.118 41.2667 223.185 42.9333 222.518 44.8C221.918 46.6 221.618 48.1667 221.618 49.5C221.618 50.2333 221.718 50.8 221.918 51.2C222.118 50.6667 222.618 49.8 223.418 48.6C224.218 47.3333 225.118 46.2 226.118 45.2C227.118 44.1333 228.051 43.6 228.918 43.6C229.651 43.6 230.018 43.9 230.018 44.5C229.151 44.5667 228.285 45.1 227.418 46.1C226.618 47.0333 225.851 48.1667 225.118 49.5C224.451 50.8333 223.885 52.1667 223.418 53.5C223.018 54.7667 222.718 55.7667 222.518 56.5C222.451 56.7667 222.351 57.1 222.218 57.5C222.085 57.9 222.018 58.3 222.018 58.7C222.018 59.1667 222.285 59.9333 222.818 61C223.351 62 224.218 62.9333 225.418 63.8C226.618 64.6667 228.251 65.1 230.318 65.1C230.918 65.1 231.551 65.0333 232.218 64.9C232.885 64.7667 233.518 64.6333 234.118 64.5L234.818 64.3C234.951 64.3 235.018 64.3667 235.018 64.5C235.018 64.7 234.785 64.9667 234.318 65.3C233.918 65.5667 233.551 65.7667 233.218 65.9C232.285 66.3667 231.251 66.6 230.118 66.6C228.451 66.6 226.851 66.1 225.318 65.1C223.851 64.0333 222.551 62.8333 221.418 61.5C221.351 62.0333 221.318 62.5667 221.318 63.1C221.318 63.5667 221.318 64.0333 221.318 64.5C221.318 68.3667 221.985 71.3 223.318 73.3C224.651 75.3 226.185 76.3 227.918 76.3ZM247.564 74.2C246.697 74.2 245.964 73.7667 245.364 72.9C244.831 72.0333 244.597 70.6333 244.664 68.7C244.664 67.7667 244.931 66.2333 245.464 64.1C245.997 61.9 246.564 59.4667 247.164 56.8C247.831 54.1333 248.397 51.5333 248.864 49C249.397 46.4667 249.664 44.4 249.664 42.8C249.664 42.0667 249.597 41.4667 249.464 41C249.331 40.4667 248.997 40.2 248.464 40.2C248.064 40.2 247.697 40.4 247.364 40.8C247.031 41.1333 246.697 41.4667 246.364 41.8C245.897 42.4 245.631 42.7 245.564 42.7C245.497 42.7 245.464 42.6 245.464 42.4C245.464 41.6 245.764 40.7333 246.364 39.8C247.031 38.8 247.797 38.3 248.664 38.3C249.731 38.3 250.497 38.8333 250.964 39.9C251.431 40.9 251.664 42.3333 251.664 44.2C251.664 46.2667 251.431 48.6 250.964 51.2C250.497 53.8 249.997 56.2333 249.464 58.5C249.197 59.5667 248.964 60.8667 248.764 62.4C248.564 63.9333 248.464 65.4333 248.464 66.9C248.464 68.1667 248.564 69.2333 248.764 70.1C249.031 70.9 249.497 71.3 250.164 71.3C250.697 71.3 251.331 71 252.064 70.4C252.864 69.7333 253.797 68.6333 254.864 67.1C256.397 64.9667 257.764 62.5333 258.964 59.8C260.231 57 261.397 54.4667 262.464 52.2C262.864 51.2667 263.364 50.8 263.964 50.8C265.497 50.8 266.264 51.6333 266.264 53.3C266.264 54.5667 266.064 56.1667 265.664 58.1C265.331 59.9667 265.164 61.7667 265.164 63.5C265.164 66.6333 265.764 68.2 266.964 68.2C267.564 68.2 268.164 67.8333 268.764 67.1C269.431 66.3 269.797 65.8333 269.864 65.7C270.264 65.2333 270.631 65 270.964 65C271.364 65 271.564 65.2333 271.564 65.7C271.564 66.5667 271.064 67.5 270.064 68.5C269.064 69.5 267.997 70 266.864 70C265.797 70 264.931 69.6333 264.264 68.9C263.664 68.1 263.097 67.0667 262.564 65.8C261.964 64.2667 261.664 62.9333 261.664 61.8C261.664 60.6667 261.597 59.5667 261.464 58.5C260.997 60.1 260.197 61.8 259.064 63.6C257.997 65.4 256.764 67.1333 255.364 68.8C254.031 70.4 252.664 71.7 251.264 72.7C249.864 73.7 248.631 74.2 247.564 74.2ZM279.438 59.7C278.905 59.7 278.638 59.4333 278.638 58.9C278.772 57.1667 279.205 54.7667 279.938 51.7C280.738 48.5667 281.705 45.1667 282.838 41.5C284.038 37.7667 285.338 34.0667 286.738 30.4C288.138 26.6667 289.505 23.2667 290.838 20.2C292.238 17.1333 293.505 14.7333 294.638 13C295.038 12.3333 295.538 11.8667 296.138 11.6C296.805 11.2667 297.405 11.1 297.938 11.1C298.472 11.1 298.905 11.2333 299.238 11.5C299.638 11.7 299.838 12.0667 299.838 12.6C299.838 13.0667 299.638 13.6 299.238 14.2C298.172 15.8667 296.838 18.2 295.238 21.2C293.638 24.2 291.972 27.5333 290.238 31.2C288.572 34.8 286.972 38.4 285.438 42C283.972 45.6 282.738 48.9 281.738 51.9C280.805 54.9 280.272 57.2667 280.138 59C280.138 59.4667 279.905 59.7 279.438 59.7ZM274.838 76.4C274.372 76.6 273.838 76.3333 273.238 75.6C272.705 74.8667 272.438 74.1 272.438 73.3C272.438 72.3 272.972 71.4 274.038 70.6C275.105 69.7333 276.238 69.0667 277.438 68.6C278.705 68.0667 279.572 67.8 280.038 67.8C280.438 67.8 280.505 68.1333 280.238 68.8C279.972 69.4 279.605 70.1333 279.138 71C278.738 71.8 278.438 72.4667 278.238 73C277.905 74.4667 276.772 75.6 274.838 76.4Z"
								fill="#047F73"
							/>
						</svg>