<svg width="45" height="45" viewBox="0 0 45 45" fill="none" xmlns="http://www.w3.org/2000/svg">
<path d="M22.5 45C34.9264 45 45 34.9264 45 22.5C45 10.0736 34.9264 0 22.5 0C10.0736 0 0 10.0736 0 22.5C0 34.9264 10.0736 45 22.5 45Z" fill="#55ACEE"/>
<path d="M35.214 14.522C34.2498 14.9496 33.2126 15.2388 32.1249 15.3679C33.2355 14.7025 34.0878 13.6497 34.4901 12.3931C33.4509 13.0095 32.2994 13.4567 31.0749 13.6978C30.0938 12.653 28.696 12 27.1482 12C24.1786 12 21.7701 14.4085 21.7701 17.3781C21.7701 17.7997 21.8178 18.21 21.9101 18.6038C17.4404 18.3796 13.4773 16.2387 10.8245 12.9839C10.3617 13.778 10.0962 14.7025 10.0962 15.688C10.0962 17.5534 11.0463 19.2003 12.4886 20.1645C11.6074 20.1368 10.7776 19.8949 10.0528 19.491C10.0524 19.5139 10.0524 19.5368 10.0524 19.5592C10.0524 22.1651 11.9071 24.3385 14.3669 24.8323C13.9161 24.9558 13.44 25.0212 12.9503 25.0212C12.6029 25.0212 12.2664 24.9879 11.9383 24.9253C12.6226 27.0615 14.6084 28.6165 16.9623 28.6602C15.1213 30.1029 12.8027 30.9624 10.2823 30.9624C9.84909 30.9624 9.41993 30.9372 9 30.887C11.3788 32.4136 14.2065 33.3036 17.2435 33.3036C27.1358 33.3036 32.5456 25.1086 32.5456 18.001C32.5456 17.768 32.5404 17.5358 32.53 17.3055C33.5816 16.5475 34.4933 15.6005 35.214 14.522Z" fill="#F1F2F2"/>
</svg>
