<svg width="45" height="46" viewBox="0 0 45 46" fill="none" xmlns="http://www.w3.org/2000/svg">
<path d="M21.4 0.0262361C9.41868 0.596717 -0.0362423 10.5748 0.000104441 22.5697C0.0111712 26.223 0.893149 29.6713 2.44901 32.7181L0.0602121 44.3136C-0.0690086 44.9408 0.496698 45.49 1.1198 45.3425L12.482 42.6505C15.4011 44.1046 18.6799 44.9445 22.15 44.9974C34.396 45.1845 44.6071 35.4608 44.9888 23.2194C45.3979 10.0973 34.5679 -0.600881 21.4 0.0262361ZM34.9575 34.9576C31.63 38.2851 27.2058 40.1176 22.5 40.1176C19.7446 40.1176 17.1066 39.4994 14.659 38.2802L13.0767 37.492L6.11048 39.1425L7.57682 32.0243L6.79727 30.4977C5.52665 28.0093 4.88239 25.3185 4.88239 22.5C4.88239 17.7941 6.71492 13.37 10.0424 10.0424C13.3402 6.74463 17.8366 4.88227 22.5004 4.88227C27.2061 4.88238 31.6301 6.7149 34.9576 10.0423C38.2851 13.3698 40.1177 17.7939 40.1178 22.4997C40.1177 27.1636 38.2553 31.6599 34.9575 34.9576Z" fill="#7AD06D"/>
<path d="M33.4196 27.3773L29.0614 26.1259C28.4884 25.9614 27.8714 26.124 27.4539 26.5494L26.3881 27.6352C25.9387 28.0931 25.2568 28.2402 24.662 27.9996C22.6004 27.1652 18.2635 23.3092 17.1559 21.3804C16.8364 20.8241 16.8893 20.1285 17.2816 19.6208L18.2121 18.4171C18.5766 17.9454 18.6535 17.312 18.4124 16.7668L16.5788 12.6197C16.1396 11.6264 14.8703 11.3373 14.0411 12.0386C12.8247 13.0674 11.3815 14.6307 11.206 16.3626C10.8967 19.4162 12.2063 23.2655 17.1584 27.8875C22.8795 33.2272 27.4609 33.9327 30.4439 33.2101C32.1358 32.8003 33.4879 31.1574 34.3412 29.8122C34.923 28.8951 34.4636 27.6771 33.4196 27.3773Z" fill="#7AD06D"/>
</svg>
